<?xml version="1.0" encoding="UTF-8"?><svg id="Layer_1" xmlns="http://www.w3.org/2000/svg" viewBox="0 0 1593.54 344.09"><defs><style>.cls-1{fill:#181a1f;}</style></defs><g><path class="cls-1" d="M99.66,124.76h32.8c17.46,0,27.14,10.27,27.14,24.9s-9.79,24.9-27.26,24.9h-22.06v32.8h-10.62V124.76Zm30.8,40.36c12.15,0,17.94-6.73,17.94-15.46s-5.55-14.87-17.94-14.87h-20.18v30.33h20.18Z"/><path class="cls-1" d="M167.51,178.22c0-17.58,11.33-30.92,27.14-30.92s27.14,13.33,27.14,30.92-11.8,30.8-27.14,30.8-27.14-13.22-27.14-30.8Zm43.89,.12c0-14.75-6.84-22.18-16.76-22.18s-16.76,7.43-16.76,22.18,6.84,21.83,16.76,21.83,16.76-7.08,16.76-21.83Z"/><path class="cls-1" d="M230.05,148.95h10.5l9.09,29.15c3.54,11.21,4.72,14.99,5.66,18.17l5.66-18.17,9.09-29.15h11.56l10.03,32.33,4.6,14.99c.94-2.71,2.48-7.43,5.9-18.17l9.2-29.15h10.62l-19.82,58.41h-11.68l-8.97-28.79-5.78-18.29c-1.18,3.54-2.36,7.2-5.9,18.29l-9.2,28.79h-11.33l-19.23-58.41Z"/><path class="cls-1" d="M330.11,178.45c0-19.23,10.97-31.15,25.84-31.15,16.99,0,27.49,14.4,25.25,33.51h-41.18c.59,14.75,8.73,19.47,16.87,19.47,9.91,0,14.04-7.55,15.58-11.33l9.2,3.19c-4.37,11.92-14.16,16.87-25.13,16.87-15.93,0-26.43-10.74-26.43-30.56Zm40.83-6.02c0-11.09-6.96-16.87-14.99-16.87s-14.87,6.25-15.69,16.87h30.68Z"/><path class="cls-1" d="M397.25,148.95h9.91v12.15c1.89-4.37,7.91-12.98,19-12.98,2.83,0,4.6,.35,6.02,.71v10.27c-1.89-.35-3.89-.59-6.25-.59-13.22,0-18.64,8.38-18.64,22.07v26.79h-10.03v-58.41Z"/><path class="cls-1" d="M438.67,178.45c0-19.23,10.97-31.15,25.84-31.15,16.99,0,27.49,14.4,25.25,33.51h-41.18c.59,14.75,8.73,19.47,16.87,19.47,9.91,0,14.04-7.55,15.58-11.33l9.2,3.19c-4.37,11.92-14.16,16.87-25.13,16.87-15.93,0-26.43-10.74-26.43-30.56Zm40.83-6.02c0-11.09-6.96-16.87-14.99-16.87s-14.87,6.25-15.69,16.87h30.68Z"/><path class="cls-1" d="M501.45,178.22c0-19.23,10.27-30.92,23.72-30.92,10.27,0,15.69,5.78,18.53,10.74v-33.28h10.03v82.6h-9.79v-8.97c-2.83,4.96-8.5,10.62-18.76,10.62-13.45,0-23.72-11.56-23.72-30.8Zm42.83,.12c0-14.75-6.96-22.18-16.52-22.18s-16.05,5.9-16.05,22.18,6.73,21.83,16.05,21.83,16.52-7.08,16.52-21.83Z"/><path class="cls-1" d="M613.9,198.27v9.09h-9.79V124.76h10.03v33.16c2.83-4.96,8.26-10.62,18.53-10.62,13.45,0,23.72,11.56,23.72,30.8s-10.27,30.92-23.72,30.92c-10.27,0-15.93-5.78-18.76-10.74Zm32.21-20.29c0-16.28-6.73-21.83-16.05-21.83s-16.52,7.08-16.52,21.83,6.96,22.18,16.52,22.18,16.05-5.9,16.05-22.18Z"/><path class="cls-1" d="M717.74,148.95l-22.66,66.43c-3.89,11.56-8.14,14.99-18.41,14.99h-11.09v-9.2h11.09c3.89,0,6.49-.83,8.02-5.19l3.3-9.32-25.25-57.7h11.33l12.51,30.33c3.66,8.85,4.6,11.21,5.78,14.28,1.06-3.42,1.77-5.55,4.13-12.63l10.62-31.98h10.62Z"/></g><g><path class="cls-1" d="M1092.18,206.44c-7.96,0-14.43-6.47-14.43-14.43v-21.25h46.05v-12.02h-46.05v-27.26h-10.32c-.94,0-1.7,.76-1.7,1.7v58.82c0,14.58,11.86,26.45,26.45,26.45h45.19c.94,0,1.7-.76,1.7-1.7v-10.32h-46.9Z"/><path class="cls-1" d="M1137.37,111.04h-49.5c-.94,0-1.7,.76-1.7,1.7v10.32h52.91v-10.32c0-.94-.77-1.7-1.71-1.7"/><path class="cls-1" d="M1462.27,206.44c-7.96,0-14.43-6.47-14.43-14.43V111.04h-10.32c-.94,0-1.7,.77-1.7,1.7v79.26c0,14.58,11.87,26.45,26.45,26.45h45.19c.94,0,1.7-.76,1.7-1.7v-10.32h-46.9Z"/><path class="cls-1" d="M1391.15,111.04h-20.73l-26.31,93.77v11.95c0,.94,.76,1.7,1.7,1.7h10.32v-11.99l23.4-83.4h2.51l23.4,83.4v11.99h10.32c.94,0,1.7-.76,1.7-1.7v-11.95l-26.31-93.77Z"/><path class="cls-1" d="M1265,140.9v-3.41c0-7.96,6.48-14.43,14.43-14.43h40.08v-10.33c-.01-.93-.77-1.68-1.7-1.68h-38.38c-14.58,0-26.45,11.87-26.45,26.45v10.22l68.14,40.89v3.41c0,7.96-6.48,14.43-14.43,14.43h-46.9v10.32c0,.94,.76,1.7,1.7,1.7h45.19c14.58,0,26.45-11.87,26.45-26.45v-10.22l-68.14-40.89Z"/><path class="cls-1" d="M1237.6,140.9c0-16.47-13.4-29.86-29.86-29.86h-48.6c-.94,0-1.7,.77-1.7,1.7v104.01c0,.94,.76,1.7,1.7,1.7h10.32V123.06h38.28c9.84,0,17.84,8,17.84,17.84s-8,17.84-17.84,17.84h-23.05v12.02h18.66l22.22,36.56v11.14h10.31c.94,0,1.71-.76,1.71-1.7v-12.81l-20.99-34.54c12.15-3.78,20.99-15.13,20.99-28.51"/><path class="cls-1" d="M786.58,111.04h-10.31v105.72c0,.94,.76,1.7,1.7,1.7h10.32V112.74c0-.94-.76-1.7-1.7-1.7"/><path class="cls-1" d="M1472.49,111.04c-6.64,0-12.02,5.38-12.02,12.02s5.38,12.02,12.02,12.02,12.02-5.38,12.02-12.02-5.38-12.02-12.02-12.02m0,1.32c5.9,0,10.7,4.8,10.7,10.7s-4.8,10.7-10.7,10.7-10.7-4.8-10.7-10.7,4.8-10.7,10.7-10.7"/><path class="cls-1" d="M1476.97,120.39c0-1.84-1.5-3.34-3.34-3.34h-5.44c-.11,0-.19,.08-.19,.19v11.64c0,.11,.08,.19,.19,.19h1.16v-10.67h4.28c1.1,0,1.99,.89,1.99,2s-.9,2-1.99,2h-2.58v1.35h2.09l2.49,4.09v1.25h1.15c.11,0,.19-.08,.19-.19v-1.43l-2.35-3.87c1.36-.42,2.35-1.69,2.35-3.19"/><path class="cls-1" d="M965.56,111.04h-22.14c-.94,0-1.71,.76-1.71,1.7v104.01c0,.94,.77,1.7,1.71,1.7h10.32V123.06h3.41l24.85,68.14h12.85l-29.29-80.16Z"/><path class="cls-1" d="M1040.62,111.04h-22.14l-21.78,59.72h12.8l17.4-47.7h3.41v95.4h10.32c.94,0,1.7-.76,1.7-1.7V112.74c0-.94-.76-1.7-1.7-1.7"/><path class="cls-1" d="M839.85,111.04h-22.14c-.94,0-1.71,.76-1.71,1.7v104.01c0,.94,.76,1.7,1.71,1.7h10.32V123.06h3.41l24.85,68.14h12.85l-29.29-80.16Z"/><path class="cls-1" d="M914.9,111.04h-22.14l-21.78,59.72h12.79l17.4-47.7h3.42v95.4h10.31c.94,0,1.7-.76,1.7-1.7V112.74c0-.94-.76-1.7-1.7-1.7"/></g></svg>