<?xml version="1.0" encoding="UTF-8"?><svg id="Layer_1" xmlns="http://www.w3.org/2000/svg" viewBox="0 0 1156.87 344.09"><defs><style>.cls-1{fill:#ddff19;}</style></defs><g><path class="cls-1" d="M506.75,274.87c-10.52,0-19.08-8.56-19.08-19.08v-28.09h60.88v-15.89h-60.88v-36.03h-13.64c-1.25,0-2.25,1-2.25,2.25v77.76c0,19.28,15.68,34.97,34.97,34.97h59.75c1.24,0,2.25-1.01,2.25-2.25v-13.64h-62Z"/><path class="cls-1" d="M566.5,148.75h-65.44c-1.24,0-2.25,1.01-2.25,2.25v13.64h69.95v-13.64c0-1.24-1.01-2.25-2.25-2.25"/><path class="cls-1" d="M996.02,274.87c-10.52,0-19.08-8.56-19.08-19.08v-107.04h-13.64c-1.24,0-2.25,1.01-2.25,2.25v104.79c0,19.28,15.69,34.97,34.97,34.97h59.75c1.25,0,2.25-1.01,2.25-2.25v-13.64h-62Z"/><path class="cls-1" d="M901.99,148.75h-27.41l-34.78,123.96v15.8c0,1.25,1,2.25,2.25,2.25h13.64v-15.86l30.93-110.26h3.32l30.93,110.26v15.86h13.64c1.24,0,2.25-1.01,2.25-2.25v-15.8l-34.78-123.96Z"/><path class="cls-1" d="M735.23,188.23v-4.51c0-10.52,8.56-19.08,19.08-19.08h52.99v-13.66c-.02-1.23-1.02-2.23-2.25-2.23h-50.74c-19.28,0-34.97,15.69-34.97,34.97v13.51l90.09,54.06v4.51c0,10.52-8.56,19.08-19.08,19.08h-62v13.64c0,1.25,1,2.25,2.25,2.25h59.75c19.28,0,34.97-15.69,34.97-34.97v-13.51l-90.09-54.05Z"/><path class="cls-1" d="M699.01,188.23c0-21.77-17.71-39.48-39.48-39.48h-64.25c-1.24,0-2.25,1.01-2.25,2.25v137.51c0,1.24,1.01,2.25,2.25,2.25h13.64v-126.12h50.61c13,0,23.58,10.58,23.58,23.58s-10.58,23.58-23.58,23.58h-30.47v15.89h24.67l29.38,48.33v14.73h13.64c1.24,0,2.25-1.01,2.25-2.25v-16.93l-27.76-45.66c16.06-5,27.76-20.01,27.76-37.7"/><path class="cls-1" d="M102.74,148.75h-13.64v139.76c0,1.25,1.01,2.25,2.25,2.25h13.64V151c0-1.24-1.01-2.25-2.25-2.25"/><path class="cls-1" d="M1009.53,148.75c-8.77,0-15.89,7.11-15.89,15.89s7.11,15.9,15.89,15.9,15.89-7.12,15.89-15.9-7.11-15.89-15.89-15.89m0,1.75c7.8,0,14.15,6.35,14.15,14.14s-6.34,14.14-14.15,14.14-14.14-6.34-14.14-14.14,6.34-14.14,14.14-14.14"/><path class="cls-1" d="M1015.46,161.11c0-2.43-1.98-4.41-4.41-4.41h-7.19c-.14,0-.25,.11-.25,.25v15.39c0,.14,.11,.25,.25,.25h1.53v-14.11h5.66c1.45,0,2.63,1.18,2.63,2.64s-1.18,2.64-2.63,2.64h-3.41v1.78h2.76l3.29,5.41v1.65h1.53c.14,0,.25-.11,.25-.25v-1.89l-3.11-5.11c1.8-.55,3.11-2.23,3.11-4.22"/><path class="cls-1" d="M339.35,148.75h-29.27c-1.24,0-2.25,1.01-2.25,2.25v137.51c0,1.25,1.01,2.25,2.25,2.25h13.64v-126.12h4.51l32.86,90.08h16.99l-38.73-105.97Z"/><path class="cls-1" d="M438.59,148.75h-29.27l-28.8,78.95h16.92l23-63.06h4.51v126.12h13.64c1.24,0,2.25-1.01,2.25-2.25V151c0-1.24-1.01-2.25-2.25-2.25"/><path class="cls-1" d="M173.15,148.75h-29.27c-1.25,0-2.25,1.01-2.25,2.25v137.51c0,1.25,1.01,2.25,2.25,2.25h13.64v-126.12h4.51l32.86,90.08h16.99l-38.73-105.97Z"/><path class="cls-1" d="M272.38,148.75h-29.27l-28.8,78.95h16.91l23-63.06h4.52v126.12h13.64c1.25,0,2.25-1.01,2.25-2.25V151c0-1.24-1.01-2.25-2.25-2.25"/></g><g><path class="cls-1" d="M93.3,56.76h21.4c11.4,0,17.71,6.7,17.71,16.25s-6.39,16.25-17.79,16.25h-14.4v21.41h-6.93V56.76Zm20.1,26.33c7.93,0,11.7-4.39,11.7-10.09s-3.62-9.7-11.7-9.7h-13.17v19.79h13.17Z"/><path class="cls-1" d="M137.58,91.64c0-11.47,7.39-20.17,17.71-20.17s17.71,8.7,17.71,20.17-7.7,20.1-17.71,20.1-17.71-8.62-17.71-20.1Zm28.64,.08c0-9.62-4.47-14.47-10.93-14.47s-10.93,4.85-10.93,14.47,4.47,14.25,10.93,14.25,10.93-4.62,10.93-14.25Z"/><path class="cls-1" d="M178.39,72.55h6.85l5.93,19.02c2.31,7.31,3.08,9.78,3.7,11.86l3.7-11.86,5.93-19.02h7.55l6.54,21.1,3,9.78c.62-1.77,1.62-4.85,3.85-11.86l6.01-19.02h6.93l-12.94,38.11h-7.62l-5.85-18.79-3.77-11.93c-.77,2.31-1.54,4.7-3.85,11.93l-6.01,18.79h-7.39l-12.55-38.11Z"/><path class="cls-1" d="M243.68,91.8c0-12.55,7.16-20.33,16.86-20.33,11.09,0,17.94,9.39,16.48,21.87h-26.87c.38,9.62,5.7,12.7,11.01,12.7,6.47,0,9.16-4.93,10.16-7.39l6.01,2.08c-2.85,7.78-9.24,11.01-16.4,11.01-10.39,0-17.25-7.01-17.25-19.94Zm26.64-3.93c0-7.24-4.54-11.01-9.78-11.01s-9.7,4.08-10.24,11.01h20.02Z"/><path class="cls-1" d="M287.49,72.55h6.47v7.93c1.23-2.85,5.16-8.47,12.4-8.47,1.85,0,3,.23,3.93,.46v6.7c-1.23-.23-2.54-.38-4.08-.38-8.62,0-12.17,5.47-12.17,14.4v17.48h-6.54v-38.11Z"/><path class="cls-1" d="M314.52,91.8c0-12.55,7.16-20.33,16.86-20.33,11.09,0,17.94,9.39,16.48,21.87h-26.87c.38,9.62,5.7,12.7,11.01,12.7,6.47,0,9.16-4.93,10.16-7.39l6.01,2.08c-2.85,7.78-9.24,11.01-16.4,11.01-10.39,0-17.25-7.01-17.25-19.94Zm26.64-3.93c0-7.24-4.54-11.01-9.78-11.01s-9.7,4.08-10.24,11.01h20.02Z"/><path class="cls-1" d="M355.48,91.64c0-12.55,6.7-20.17,15.48-20.17,6.7,0,10.24,3.77,12.09,7.01v-21.71h6.54v53.9h-6.39v-5.85c-1.85,3.23-5.54,6.93-12.24,6.93-8.78,0-15.48-7.55-15.48-20.1Zm27.95,.08c0-9.62-4.54-14.47-10.78-14.47s-10.47,3.85-10.47,14.47,4.39,14.25,10.47,14.25,10.78-4.62,10.78-14.25Z"/><path class="cls-1" d="M428.86,104.73v5.93h-6.39V56.76h6.54v21.64c1.85-3.23,5.39-6.93,12.09-6.93,8.78,0,15.48,7.54,15.48,20.1s-6.7,20.17-15.48,20.17c-6.7,0-10.39-3.77-12.24-7.01Zm21.02-13.24c0-10.63-4.39-14.24-10.47-14.24s-10.78,4.62-10.78,14.24,4.54,14.48,10.78,14.48,10.47-3.85,10.47-14.48Z"/><path class="cls-1" d="M496.62,72.55l-14.78,43.35c-2.54,7.55-5.31,9.78-12.01,9.78h-7.24v-6.01h7.24c2.54,0,4.23-.54,5.24-3.39l2.16-6.08-16.48-37.65h7.39l8.16,19.79c2.39,5.77,3,7.31,3.77,9.32,.69-2.23,1.16-3.62,2.69-8.24l6.93-20.87h6.93Z"/></g></svg>